<svg xmlns="http://www.w3.org/2000/svg" viewBox="0 0 100 100"><path d="M95.665 7.523c-2.074-.426-5.691.319-8.829 1.17s-8.191 4.574-11.063 6.702-9.308 8.617-11.276 10.851-8.563 11.01-10.266 13.723a6.793 6.793 0 0 0-.808 1.798c-.133-.281-.265-.56-.393-.836l-.008-.015a2.074 2.074 0 0 0-1.503-3.501c-.032 0-.062.004-.093.005.062-.305.112-.567.072-.777l.087.063.49-.691c.155-.222.349-.484.575-.779l.374-.464.427-.505.474-.541.522-.566c.363-.385.746-.783 1.164-1.185.414-.403.839-.829 1.251-1.275.415-.445.833-.899 1.24-1.366.408-.465.8-.944 1.18-1.43l.267-.366.132-.182c.049-.068.085-.131.128-.197.085-.13.159-.261.23-.392.074-.13.142-.261.207-.392.267-.52.494-1.034.714-1.518.224-.483.453-.932.668-1.347.215-.414.402-.798.556-1.143.151-.346.267-.654.354-.91a1.146 1.146 0 0 0-.011-.848 5.658 5.658 0 0 1-.036-.073l-.201-.071-.074.034a1.148 1.148 0 0 0-.549.639c-.098.25-.21.556-.323.913a36.47 36.47 0 0 0-.351 1.211c-.126.445-.267.926-.456 1.418-.191.491-.41 1.002-.653 1.519-.06.13-.122.259-.19.386a4.91 4.91 0 0 1-.207.378c-.037.06-.072.128-.11.182l-.127.186-.256.374c-.353.481-.727.967-1.119 1.44a35.09 35.09 0 0 1-2.423 2.672c-.41.405-.796.817-1.154 1.207-.357.393-.689.769-.994 1.117l-.43.507-.378.467c-.231.3-.425.565-.582.784l-.453.618c-.127-.291-.514-.453-1.459-.456-.945.002-1.332.165-1.459.456l-.453-.618a29.936 29.936 0 0 0-.582-.784l-.378-.467-.43-.507a77.576 77.576 0 0 0-.994-1.117c-.358-.39-.744-.802-1.154-1.207a35.822 35.822 0 0 1-3.542-4.112l-.256-.374-.127-.186c-.038-.054-.073-.122-.11-.182a4.91 4.91 0 0 1-.207-.378 8.114 8.114 0 0 1-.19-.386 24.64 24.64 0 0 1-.653-1.519c-.189-.492-.33-.973-.456-1.418a35.487 35.487 0 0 0-.351-1.211 15.075 15.075 0 0 0-.323-.913 1.156 1.156 0 0 0-.549-.639 3.579 3.579 0 0 1-.074-.034l-.201.071-.036.073a1.138 1.138 0 0 0-.011.848c.088.256.204.564.354.91.153.345.34.729.556 1.143.215.414.443.864.668 1.347.22.485.447.998.714 1.518.065.131.133.262.207.392.071.131.145.263.23.392.043.066.078.129.128.197l.132.182.267.366c.379.486.772.965 1.18 1.43.406.466.825.921 1.24 1.366.412.446.837.873 1.251 1.275.418.401.8.8 1.164 1.185l.522.566.474.541.427.505.374.464c.226.295.42.558.575.779l.49.691.087-.063c-.04.21.01.471.072.777-.031-.001-.062-.005-.093-.005a2.074 2.074 0 0 0-1.503 3.501l-.008.015c-.128.276-.261.555-.393.836a6.779 6.779 0 0 0-.808-1.798c-1.702-2.713-8.298-11.489-10.266-13.723s-8.404-8.723-11.276-10.851-7.925-5.851-11.063-6.702-6.755-1.596-8.829-1.17C2.26 7.948-.506 8.161.08 11.778L4.76 31.99l2.021 8.776s1.862 5.106 6.276 5.798 10.212-.213 12.553-.213h.033c-2.39.662-4.847 1.336-8.419 3.262 0 0-2.447 1.915-3.298 3.652-.727 1.484-1.631 3.333-2.092 3.865s-1.078 1.489-.816 2.376c.284.957.993 1.454 1.206 2.518.188.939-.532 2.624-.78 2.943-.248.319-.922 1.95-.106 2.766.675.675 2.447 1.667 2.447 2.73 0 1.064-.532 2.553-.106 3.404.426.851 1.915 1.596 2.305 2.34.39.745.603 1.631-.78 3.723-1.383 2.092-2.589 4.397-3.688 6.312s-3.191 5-1.844 5.993c1.347.993 2.73-.177 3.369-1.844.638-1.667.461-2.943 2.092-5.035s2.695-3.191 6.17-2.198c0 0 2.447.816 3.085 1.596s1.135 1.56 1.206 2.34c0 0 .39 1.17.851.39.461-.78.638-1.95 1.099-1.702.461.248.284.957.142 1.915-.142.957-.39 1.844.709 1.135 1.099-.709 1.667-1.312 1.808-2.482.142-1.17.355-2.553 1.808-2.624 1.454-.071 3.227.035 3.901-1.489.674-1.525 1.454-3.546 1.56-7.092 0 0 .248-4.255.816-6.879.567-2.624 1.915-6.064 3.014-7.837 1.099-1.773 3.44-4.787 4.078-5.709.115-.166.241-.316.371-.463.51 1.772 1.172 3.226 1.993 4.17.201 1.302.431 2.489.585 3.551.421 2.91.596 4.618 1.672 5.806 1.076-1.188 1.251-2.896 1.672-5.806.154-1.062.383-2.249.585-3.551.821-.944 1.483-2.397 1.993-4.17.13.146.256.296.371.463.638.922 2.979 3.936 4.078 5.709 1.099 1.773 2.447 5.213 3.014 7.837.567 2.624.816 6.879.816 6.879.106 3.546.886 5.567 1.56 7.092.674 1.525 2.447 1.418 3.901 1.489 1.454.071 1.667 1.454 1.808 2.624.142 1.17.709 1.773 1.808 2.482 1.099.709.851-.177.709-1.135-.142-.957-.319-1.667.142-1.915.461-.248.638.922 1.099 1.702.461.78.851-.39.851-.39.071-.78.567-1.56 1.206-2.34.638-.78 3.085-1.596 3.085-1.596 3.475-.993 4.539.106 6.17 2.198 1.631 2.092 1.454 3.369 2.092 5.035.638 1.667 2.021 2.837 3.369 1.844 1.347-.993-.745-4.078-1.844-5.993s-2.305-4.22-3.688-6.312c-1.383-2.092-1.17-2.979-.78-3.723s1.879-1.489 2.305-2.34c.426-.851-.106-2.34-.106-3.404s1.772-2.056 2.447-2.73c.816-.816.142-2.447-.106-2.766-.248-.319-.968-2.004-.78-2.943.213-1.064.922-1.56 1.206-2.518.263-.887-.355-1.844-.816-2.376-.461-.532-1.365-2.381-2.092-3.865-.851-1.738-3.298-3.652-3.298-3.652-3.573-1.926-6.029-2.6-8.419-3.262h.033c2.34 0 8.138.904 12.553.213s6.276-5.798 6.276-5.798l2.021-8.776 4.681-20.212c.583-3.617-2.183-3.83-4.258-4.255z"/></svg>